<?xml version="1.0" encoding="UTF-8" standalone="no"?>
<!-- Generator: Adobe Illustrator 18.0.0, SVG Export Plug-In . SVG Version: 6.00 Build 0)  -->

<svg
   xmlns:dc="http://purl.org/dc/elements/1.1/"
   xmlns:cc="http://creativecommons.org/ns#"
   xmlns:rdf="http://www.w3.org/1999/02/22-rdf-syntax-ns#"
   xmlns:svg="http://www.w3.org/2000/svg"
   xmlns="http://www.w3.org/2000/svg"
   xmlns:sodipodi="http://sodipodi.sourceforge.net/DTD/sodipodi-0.dtd"
   xmlns:inkscape="http://www.inkscape.org/namespaces/inkscape"
   version="1.1"
   id="Layer_1"
   x="0px"
   y="0px"
   viewBox="0 0 1700 1400"
   enable-background="new 0 0 1700 1400"
   xml:space="preserve"
   sodipodi:docname="shoe_thumbnail.svg"
   inkscape:version="0.92.4 (5da689c313, 2019-01-14)"><metadata
   id="metadata133"><rdf:RDF><cc:Work
       rdf:about=""><dc:format>image/svg+xml</dc:format><dc:type
         rdf:resource="http://purl.org/dc/dcmitype/StillImage" /><dc:title /></cc:Work></rdf:RDF></metadata><defs
   id="defs131">
	
	
	

		
		
		
		
		
		
		
		
		
		
		
		
		
		
		
		
		
		
		
		
		
		
		
		
		
		
		
		
		
		
		
		
	
			
			
		
			
			
		
			
			
		
			
			
		
			
			
		
			
			
		
			
			
		
			
			
		
			
			
			
		
			
			
		
			
			
			
			
		
			
			
		</defs><sodipodi:namedview
   pagecolor="#ffffff"
   bordercolor="#666666"
   borderopacity="1"
   objecttolerance="10"
   gridtolerance="10"
   guidetolerance="10"
   inkscape:pageopacity="0"
   inkscape:pageshadow="2"
   inkscape:window-width="1858"
   inkscape:window-height="1057"
   id="namedview129"
   showgrid="false"
   inkscape:pagecheckerboard="true"
   inkscape:zoom="0.33714286"
   inkscape:cx="349.61079"
   inkscape:cy="613.91828"
   inkscape:window-x="1912"
   inkscape:window-y="-8"
   inkscape:window-maximized="1"
   inkscape:current-layer="Layer_1" />
<polygon
   stroke-miterlimit="10"
   points=""
   id="polygon50"
   style="fill:#ffffff;stroke:#231f20;stroke-miterlimit:10"
   transform="translate(-1712.9237,2.22458)" />
<g
   inkscape:groupmode="layer"
   id="layer1"
   inkscape:label="Layer 1" /><ellipse
   cx="850"
   cy="1143.8434"
   rx="653"
   ry="23.700001"
   id="ellipse5060"
   style="fill:#7a7a7a;fill-opacity:1" /><path
   d="m 1166.9,304.74348 c -82.2,-65.2 -191.49999,-84.3 -257.89999,-65.3 -20.3,5.8 -32.4,26.5 -27.8,47.1 l 1.6,7.3 c 4.3,-11.5 13.7,-20.8 26.2,-24.4 66.4,-19 175.69999,0.1 257.89999,65.3 16.5,13.1 25.9,33.1 25.9,54.1 v -30 c 0,-21.1 -9.4,-41.1 -25.9,-54.1 z"
   id="path5062"
   inkscape:connector-curvature="0"
   style="fill:#f6a000;fill-opacity:1" /><path
   d="m 1166.9,334.74348 c -82.2,-65.2 -191.49999,-84.3 -257.89999,-65.3 -12.5,3.6 -22,12.9 -26.2,24.4 l 28.4,128.9 c 3.7,16.8 4.8,34 3.2,50.9 -1.7,19 -6.7,37.8 -14.9,55.3 l -25.1,53.9 12.2,3.7 225.19999,68.3 47.2,-94.3 c 22.3,-44.5 33.9,-93.6 33.9,-143.4 v -28.3 c -0.1,-21.1 -9.5,-41.1 -26,-54.1 z"
   id="path5064"
   inkscape:connector-curvature="0"
   style="fill:#1f1f1f" /><path
   d="m 1378.9,416.24348 v 0 c -23.7,0 -46.8,-7.6 -65.9,-21.7 l -79.5,-58.7 c -20.8,-15.4 -50.5,-7.4 -60.9,16.3 l -39.5,90.2 c -11.1,25.2 -36,41.6 -63.6,41.6 h -16.3 c -20.5,0 -40,9.1 -53.1,24.8 l -57.19999,68.1 20,6.2 43.09999,-51.3 c 13.2,-15.7 32.6,-24.8 53.1,-24.8 h 16.3 c 27.6,0 52.5,-16.3 63.6,-41.6 l 39.5,-90.2 c 10.4,-23.7 40.1,-31.6 60.9,-16.3 l 79.5,58.7 c 19.1,14.1 42.2,21.7 65.9,21.7 4.5,0 8.6,1.6 11.8,4.1 l 0.9,-5.2 c 1.9,-11.5 -7,-21.9 -18.6,-21.9 z"
   id="path5066"
   inkscape:connector-curvature="0"
   style="fill:#f6c100;fill-opacity:1" /><path
   d="m 1274.2,448.94348 c -13.3,-6 -27.8,-10.6 -42.1,-8.2 -14.3,2.4 -28.1,13.7 -29.9,29 -1.8,15.7 8.7,29.6 17.7,42.1 27.4,38.2 53,81.2 63.9,127.7 l 87,-41.7 10.1,-60.9 c -28.2,-31.6 -76.7,-74.7 -106.7,-88 z"
   id="path5068"
   inkscape:connector-curvature="0"
   style="fill:#1f1f1f" /><path
   d="m 1318.9,417.44348 -79.5,-58.7 c -20.8,-15.4 -50.5,-7.4 -60.9,16.3 l -39.5,90.2 c -11.1,25.2 -36,41.6 -63.6,41.6 h -16.3 c -20.5,0 -40,9.1 -53.1,24.8 l -43.09999,51.3 265.99999,82.9 42.1,-20.2 c -13.4,-46.5 -35.5,-90.5 -64.9,-129 -11.7,-15.3 -25.3,-32.1 -22.9,-51.2 2.3,-18.6 20.2,-32.3 38.7,-35.2 18.5,-2.9 37.3,2.8 54.5,10 41,17.2 78.2,43.6 108,76.6 l 12.3,-73.6 c -3.2,-2.6 -7.3,-4.1 -11.8,-4.1 -23.8,0 -46.9,-7.6 -66,-21.7 z"
   id="path5070"
   inkscape:connector-curvature="0"
   style="fill:#1f1f1f;fill-opacity:1" /><path
   d="m 1276.4,440.24348 c -17.3,-7.2 -36,-12.9 -54.5,-10 -18.5,2.9 -36.4,16.7 -38.7,35.2 -2.4,19.1 11.2,36 22.9,51.2 29.4,38.4 51.5,82.5 64.9,129 l 12.9,-6.2 c -10.9,-46.6 -36.5,-89.5 -63.9,-127.7 -9,-12.6 -19.5,-26.4 -17.7,-42.1 1.8,-15.3 15.6,-26.6 29.9,-29 14.3,-2.4 28.8,2.3 42.1,8.2 30,13.4 78.4,56.4 106.8,88.1 l 3.3,-20 c -29.8,-33.1 -67,-59.5 -108,-76.7 z"
   id="path5072"
   inkscape:connector-curvature="0"
   style="fill:#f6c100;fill-opacity:1" /><path
   d="m 1366.1,607.14348 -74.2,31.7 c -45.6,19.5 -96.9,20.6 -143.4,3.3 l -155.69999,-58.1 c -34.8,-13 -73.8,-6.9 -103,16 l -217.2,170.2 c -51.2,40.1 -110.3,69 -173.5,84.8 l -43.7,10.9 c 2.8,3.9 6.2,7.4 10.2,10.5 l 8.7,6.7 c 21.2,16.3 49.8,19.2 73.8,7.4 l 132.8,-65.2 c 33.7,-16.6 72,-21.6 108.9,-14.3 l 323.69999,63.9 c 42.6,8.4 86.8,3.6 126.6,-13.7 l 93.2,-40.6 c 27.6,-12 42.7,-42 35.8,-71.3 v 0 c -4.5,-19.1 -2.6,-39.1 5.2,-57.1 l 24.8,-57.1 0.8,-12.8 c -4.5,-13.3 -19.7,-21.2 -33.8,-15.2 z"
   id="path5074"
   inkscape:connector-curvature="0"
   style="fill:#1f1f1f" /><path
   d="m 1366.1,577.94348 -74.2,31.7 c -45.6,19.5 -96.9,20.6 -143.4,3.3 l -155.69999,-58.1 c -34.8,-13 -73.8,-6.9 -103,16 l -217.2,170.2 c -51.2,40.1 -110.3,69 -173.5,84.8 l -53.6,13.4 c 0.7,9.7 4.1,19 9.9,26.8 l 43.7,-10.9 c 63.1,-15.8 122.2,-44.7 173.5,-84.8 l 217.3,-170.3 c 29.2,-22.9 68.2,-28.9 103,-16 l 155.69999,58.1 c 46.4,17.3 97.8,16.2 143.4,-3.3 l 74.2,-31.7 c 14.1,-6 29.3,1.8 33.7,15.1 l 1.2,-19.6 c 1.2,-18.7 -17.8,-32.1 -35,-24.7 z"
   id="path5076"
   inkscape:connector-curvature="0"
   style="fill:#f6a000;fill-opacity:1" /><path
   style="fill:#1f1f1f"
   inkscape:connector-curvature="0"
   id="path5078"
   d="m 1457.5,886.24348 c -5.5,-43.7 -20.6,-85.6 -44.4,-122.7 v 0 c -13.2,-20.6 -19.4,-44.8 -17.9,-69.2 l 0.4,-5.5 -7.3,16.3 c -8.1,18 -9.9,38 -5.3,57.1 v 0 c 7.1,29.3 -8.5,59.3 -37,71.3 l -96.2,40.6 c -41.1,17.3 -86.6,22.1 -130.6,13.7 l -333.99999,-63.9 c -38,-7.3 -71.6,4.9 -106.4,21.5 l -137,65.2 c -24.8,11.8 -60.1,1.7 -82,-14.6 l -9,-6.7 c -14.8,-11.1 -22.5,-28.7 -20.5,-46.5 l -102.3,25.8 c -43.7,10.9 -80,41.2 -98.6,82.2 v 0 l 157.8,149.80002 H 1114.8 l 345.9,-188.30002 z" /><path
   style="fill:#f6a000;fill-opacity:1"
   inkscape:connector-curvature="0"
   id="path5080"
   d="m 450.90001,889.44348 9,6.7 c 21.8,16.3 57.2,26.4 82,14.6 l 137,-65.2 c 34.8,-16.6 68.4,-28.8 106.4,-21.5 l 333.99999,63.9 c 44,8.4 89.5,3.6 130.6,-13.7 l 96.2,-40.6 c 28.5,-12 44,-42 37,-71.3 v 0 c -4.6,-19.1 -2.7,-39.1 5.3,-57.1 l 7.3,-16.3 3.4,-53.8 -24.8,57.1 c -7.8,18 -9.6,38 -5.2,57.1 v 0 c 6.8,29.3 -8.2,59.3 -35.8,71.3 l -93.2,40.6 c -39.8,17.3 -84,22.1 -126.6,13.7 l -323.79999,-63.8 c -36.9,-7.3 -75.1,-2.2 -108.9,14.3 l -132.8,65.2 c -24,11.8 -52.6,8.9 -73.8,-7.4 l -8.7,-6.7 c -11.9,-9.2 -19,-22.8 -20.1,-37.3 l -15.2,3.8 c -1.7,17.7 5.9,35.4 20.7,46.4 z" /><path
   d="m 1434.1116,1030.8165 c 0.1,-5.9 8.2866,-5.6148 14.146,-6.3053 l 48.9424,-5.7677 c 3.0787,-0.3628 5.6,-2.5 5.7,-5.6 v -5.8 c -0.1,-3.1 -2.6056,-5.4141 -5.7,-5.6 l -87.2964,-5.24338 c -92.4432,-5.55251 -10.9,3.26507 -11,-2.63493 -0.1,-6.00002 4.73,-4.53318 10.7,-5.13231 l 83.5964,-8.3894 c 3.6815,-0.36946 6.4,-3.4 5.5,-7 -1.3,-5.8 -3,-11.5 -5,-17.2 l -108.2947,-8.3894 c -29.6113,-2.29394 -57.0513,1.58891 -76.9513,23.58893 l -21.0138,25.9841 c -51.7,57.19999 -109.3021,72.71059 -184.1021,53.81059 L 850.75448,992.1541 c -32.4,-8.2 -83.05447,-7.04338 -110.35447,12.3566 l -79.47616,46.146 c -65.3,46.4 -127.32649,59.4757 -204.02649,36.3757 l -51.13013,-11.7487 c 8.4,11.8 22.67301,40.1492 36.97301,42.5492 l 36.27037,7.8217 c 36.8,5.9 79.34339,6.248 116.64337,6.2783 l 645.67562,0.5243 c 26.8,0.022 61.8381,-13.5216 80.9381,-32.4216 18.9,-18.7 36.1218,-23.1049 62.5106,-25.5297 l 108.4217,-9.9624 c 2.1,-5.8 3.9,-11.7 5.3,-17.7 0.8,-3.6 -1.9158,-6.663 -5.5,-7 l -44.6181,-4.1947 c -5.9,0.3 -14.3703,1.1677 -14.2703,-4.8323 z"
   id="path5082"
   inkscape:connector-curvature="0"
   style="fill:#f3f3f5"
   sodipodi:nodetypes="cssccsscssccsccccccccccsscsccscc" /><path
   d="m 1362.2,991.2435 c 0,5.9 4.8,10.7 10.7,10.7 h 121.8 c -0.4,-7.1 -1.2,-14.3 -2.5,-21.30002 H 1373 c -6,-0.1 -10.8,4.7 -10.8,10.60002 z"
   id="path5084"
   inkscape:connector-curvature="0"
   style="fill:#f6c100;fill-opacity:1" /><path
   d="m 1414.3,1018.8435 c -5.9,0 -10.7,4.8 -10.7,10.7 0,5.9 4.8,10.7 10.7,10.7 h 77.7 c 1.3,-7 2.2,-14.2 2.6,-21.3 h -80.3 z"
   id="path5086"
   inkscape:connector-curvature="0"
   style="fill:#f6c100;fill-opacity:1" /><path
   style="fill:#f6a000;fill-opacity:1"
   inkscape:connector-curvature="0"
   id="path5088"
   d="m 679.90001,1061.4435 60.6,-43 c 27.3,-19.4 61.6,-25.8 94.1,-17.6 l 259.39999,65.8 c 74.7,18.9 153.8,-5 205.6,-62.2 l 12.1,-13.4 c 19.9,-22.10002 48.3,-34.60002 78,-34.60002 h 104.1 c -0.6,-1.6 -1.1,-3.2 -1.7,-4.7 l -5.8,-14.8 c -6.4,-16.3 -22.1,-27.1 -39.6,-27.1 h -92.8 c -22.6,0 -44.5,7.8 -62,22 L 1220,990.1435 c -28.5,23.2 -66.1,31.8 -101.9,23.5 L 863.40001,954.24348 c -56.2,-13.1 -115.3,-3.9 -164.9,25.6 l -99.7,59.30002 c -28.8,17.1 -63.3,22 -95.7,13.4 l -295.7,-78.10002 -8,34.20002 187.6,53.6 c 12.7,3.6 23.7,11.9 30.8,23.1 v 0 c 0.5,0.8 1.1,1.6 1.6,2.4 l 35.4,10.7 c 76.8,23 159.8,9.3 225.1,-37 z" /><path
   style="fill:#f6c100;fill-opacity:1"
   inkscape:connector-curvature="0"
   id="path5090"
   d="m 199.50001,1008.6435 10.4,-46.80002 c 1.9,-8.7 11,-13.9 19.5,-11.1 l 62.3,20.5 c 11.3,3.7 20.6,11.9 25.8,22.60002 l 27.2,56.3 z" /><path
   style="fill:#f6c100;fill-opacity:1"
   inkscape:connector-curvature="0"
   id="path5092"
   d="m 970.00001,1059.2435 -118.5,-30.7 c -35.8,-9.3 -73.8,-1.9 -103.5,20.1 l -52.4,38.7 c -9.4,7 -4.5,22 7.2,22 h 152.5 c 40,0 79.6,-7.9 116.6,-23.2 v 0 c 12.5,-5.3 11.2,-23.5 -1.9,-26.9 z" /><path
   style="fill:#2c8fc4;fill-opacity:1"
   inkscape:connector-curvature="0"
   id="path5094"
   d="m 768.00001,1083.3435 c -7.4,0 -10.5,-9.4 -4.6,-13.8 v 0 c 16.7,-12.4 36.5,-18.9 57.3,-18.9 8.1,0 16.3,1 24.2,3.1 l 47.4,12.3 c 8.1,2.1 7.4,13.9 -0.9,15 -11.9,1.6 -24,2.3 -36.1,2.3 z" /><path
   style="fill:#f6c100;fill-opacity:1"
   inkscape:connector-curvature="0"
   id="path5096"
   d="m 357.50001,1067.9435 -160.3,-46.2 c -0.5,7.8 0.6,15.4 3,22.5 l 203.3,56.3 c -11.2,-15.7 -27.4,-27.2 -46,-32.6 z" /><path
   d="m 1342.4,1113.3435 c 20.8,-15.3 45.9,-23.5 71.7,-23.5 h 67.7 c 4.6,-8 8.4,-16.4 11.5,-25 h -105.8 c -26.7,0 -52.3,10.6 -71.2,29.5 -18.9,18.9 -44.5,29.5 -71.2,29.5 H 598.90001 c -37.3,0 -74.6,-3 -111.4,-8.9 l -32.6,-5.2 c -15.3,-2.5 -28.8,-11.4 -37.1,-24.5 v 0 c -7.1,-11.2 -18,-19.4 -30.8,-23.1 l -187.6,-53.6 -0.8,3.6 c -0.7,3.2 -1.2,6.3 -1.4,9.5 l 160.3,46.2 c 18.6,5.4 34.8,16.8 46,32.6 v 0 0 l -203.3,-56.3 c 5.9,17.4 19.9,31.6 38.7,37.2 l 93.9,27.7 c 78.2,23.1 159.4,34.8 241,34.8 H 1399.2 c 25.5,0 49.7,-11.2 66.2,-30.5 z"
   id="path5098"
   inkscape:connector-curvature="0"
   style="fill:#1f1f1f" /><path
   d="m 1458.6,1111.5435 c 5.6,-6.9 10.5,-14.1 14.8,-21.7 h -67.7 c -25.8,0 -50.9,8.2 -71.7,23.5 v 0 h 123.1 c 0.5,-0.6 1,-1.2 1.5,-1.8 z"
   id="path5100"
   inkscape:connector-curvature="0"
   style="fill:#f6c100;fill-opacity:1" /><path
   d="m 518.70001,884.44348 c -13.3,-3.6 -21.2,-17.4 -17.6,-30.7 3.6,-13.3 17.4,-21.2 30.7,-17.6 13.3,3.6 21.2,17.4 17.6,30.7 -3.6,13.3 -17.4,21.2 -30.7,17.6 z"
   id="path5102"
   inkscape:connector-curvature="0"
   style="fill:#f3f3f5" /><circle
   cx="525.20007"
   cy="860.24347"
   r="16.1"
   id="circle5104"
   style="fill:#1f1f1f" /><path
   style="fill:#2c8fc4;fill-opacity:1"
   inkscape:connector-curvature="0"
   id="path5106"
   d="m 527.60001,867.24348 v 0 c -7.2,3.1 -15.5,-0.2 -18.6,-7.3 l -13.5,-31.1 c -3.1,-7.2 0.2,-15.5 7.3,-18.6 v 0 c 7.2,-3.1 15.5,0.2 18.6,7.3 l 13.5,31.1 c 3.1,7.2 -0.2,15.5 -7.3,18.6 z" /><path
   d="m 618.70001,845.54348 c -13.7,-1.9 -23.2,-14.6 -21.3,-28.2 1.9,-13.7 14.6,-23.2 28.2,-21.3 13.7,1.9 23.2,14.6 21.3,28.2 -1.9,13.6 -14.6,23.2 -28.2,21.3 z"
   id="path5108"
   inkscape:connector-curvature="0"
   style="fill:#f3f3f5" /><circle
   cx="622.09998"
   cy="820.74347"
   r="16.1"
   id="circle5110"
   style="fill:#1f1f1f" /><path
   style="fill:#2c8fc4;fill-opacity:1"
   inkscape:connector-curvature="0"
   id="path5112"
   d="m 625.30001,827.44348 v 0 c -6.7,4 -15.4,1.8 -19.4,-4.9 l -19.6,-33 c -4,-6.7 -1.8,-15.4 4.9,-19.4 v 0 c 6.7,-4 15.4,-1.8 19.4,4.9 l 19.6,33 c 4,6.7 1.8,15.4 -4.9,19.4 z" /><path
   d="m 720.20001,794.14348 c -13.8,0 -25,-11.2 -25,-25 0,-13.8 11.2,-25 25,-25 13.8,0 25,11.2 25,25 0,13.8 -11.2,25 -25,25 z"
   id="path5114"
   inkscape:connector-curvature="0"
   style="fill:#f3f3f5" /><circle
   cx="720.20001"
   cy="769.14349"
   r="16.1"
   id="circle5116"
   style="fill:#1f1f1f" /><path
   style="fill:#2c8fc4;fill-opacity:1"
   inkscape:connector-curvature="0"
   id="path5118"
   d="m 724.30001,775.34348 v 0 c -6.1,4.9 -15,3.9 -19.9,-2.2 l -30.3,-38 c -4.9,-6.1 -3.9,-15 2.2,-19.9 v 0 c 6.1,-4.9 15,-3.9 19.9,2.2 l 30.3,38 c 4.9,6.1 3.9,15 -2.2,19.9 z" /><path
   d="m 811.90001,733.64348 c -13.8,0 -25,-11.2 -25,-25 0,-13.8 11.2,-25 25,-25 13.8,0 25,11.2 25,25 0,13.8 -11.2,25 -25,25 z"
   id="path5120"
   inkscape:connector-curvature="0"
   style="fill:#f3f3f5" /><circle
   cx="811.90002"
   cy="708.54352"
   r="16.1"
   id="circle5122"
   style="fill:#1f1f1f" /><path
   style="fill:#2c8fc4;fill-opacity:1"
   inkscape:connector-curvature="0"
   id="path5124"
   d="m 816.00001,714.74348 v 0 c -6.1,4.9 -15,3.9 -19.9,-2.2 l -36,-45.1 c -4.9,-6.1 -3.9,-15 2.2,-19.9 v 0 c 6.1,-4.9 15,-3.9 19.9,2.2 l 36,45.1 c 4.9,6.1 3.9,15 -2.2,19.9 z" /><path
   d="m 895.20001,672.44348 c -13.8,0 -25,-11.2 -25,-25 0,-13.8 11.2,-25 25,-25 13.8,0 25,11.2 25,25 0,13.8 -11.2,25 -25,25 z"
   id="path5126"
   inkscape:connector-curvature="0"
   style="fill:#f3f3f5" /><circle
   cx="895.20001"
   cy="647.44348"
   r="16.1"
   id="circle5128"
   style="fill:#1f1f1f" /><path
   style="fill:#2c8fc4;fill-opacity:1"
   inkscape:connector-curvature="0"
   id="path5130"
   d="m 899.30001,653.64348 v 0 c -6.1,4.9 -15,3.9 -19.9,-2.2 l -36.3,-45.5 c -4.9,-6.1 -3.9,-15 2.2,-19.9 v 0 c 6.1,-4.9 15,-3.9 19.9,2.2 l 36.3,45.5 c 4.9,6.1 3.9,15 -2.2,19.9 z" /><path
   d="m 981.60001,636.44348 c -13.5,2.8 -26.8,-5.9 -29.6,-19.4 -2.8,-13.5 5.9,-26.8 19.4,-29.5 13.5,-2.8 26.8,5.9 29.59999,19.4 2.8,13.5 -5.89999,26.8 -19.39999,29.5 z"
   id="path5132"
   inkscape:connector-curvature="0"
   style="fill:#f3f3f5" /><circle
   cx="976.5"
   cy="612.04352"
   r="16.1"
   id="circle5134"
   style="fill:#1f1f1f" /><path
   style="fill:#2c8fc4;fill-opacity:1"
   inkscape:connector-curvature="0"
   id="path5136"
   d="m 981.80001,617.24348 v 0 c -5,6 -13.9,6.8 -19.9,1.8 l -82.4,-68.5 c -6,-5 -6.8,-13.9 -1.8,-19.9 v 0 c 5,-6 13.9,-6.8 19.9,-1.8 l 82.4,68.5 c 5.9,4.9 6.8,13.9 1.8,19.9 z" /><path
   d="m 1060.9,562.24348 c -13,4.5 -27.3,-2.4 -31.8,-15.4 -4.5,-13 2.4,-27.3 15.4,-31.8 13,-4.5 27.3,2.4 31.8,15.4 4.6,12.9 -2.3,27.2 -15.4,31.8 z"
   id="path5138"
   inkscape:connector-curvature="0"
   style="fill:#f3f3f5" /><circle
   cx="1052.7"
   cy="538.54352"
   r="16.1"
   id="circle5140"
   style="fill:#1f1f1f" /><path
   style="fill:#2c8fc4;fill-opacity:1"
   inkscape:connector-curvature="0"
   id="path5142"
   d="m 1058.6,543.04348 v 0 c -4.2,6.6 -12.9,8.6 -19.5,4.4 l -137.79999,-86.8 c -6.6,-4.2 -8.6,-12.9 -4.4,-19.5 v 0 c 4.2,-6.6 12.9,-8.6 19.5,-4.4 l 137.79999,86.8 c 6.6,4.2 8.6,12.9 4.4,19.5 z" /><path
   style="fill:#2c8fc4;fill-opacity:1"
   inkscape:connector-curvature="0"
   id="path5144"
   d="m 788.20001,796.74348 90.3,19.8 c 7.4,1.6 13.1,-6.3 9.3,-12.8 l -35,-59.5 c -3.2,-5.5 -10.7,-6.7 -15.5,-2.6 l -51.7,44.6 c -3.8,3.3 -2.3,9.4 2.6,10.5 z" /><path
   style="fill:#2c8fc4;fill-opacity:1"
   inkscape:connector-curvature="0"
   id="path5146"
   d="m 877.30001,729.64348 48,79.7 c 4.4,7.2 11.5,12.4 19.8,14.2 l 69.79999,15.4 c 8.2,1.8 14.3,-7.4 9.4,-14.2 l -93.09999,-130.2 c -4.4,-6.2 -12.9,-7.8 -19.3,-3.7 l -30.1,19.4 c -6.5,4.3 -8.4,12.8 -4.5,19.4 z" /><path
   style="fill:#2c8fc4;fill-opacity:1"
   inkscape:connector-curvature="0"
   id="path5148"
   d="m 965.10001,681.94348 122.29999,162 c 3.8,5.1 9.2,8.8 15.4,10.7 v 0 c 25,7.4 51.4,8.7 77,3.5 l 17.6,-3.5 c 7,-1.4 9.6,-10.1 4.4,-15.1 l -193.4,-188.4 c -4.1,-4 -10.39999,-4.8 -15.29999,-1.9 l -24.1,13.9 c -6.7,3.8 -8.5,12.7 -3.9,18.8 z" /><path
   style="fill:#2c8fc4;fill-opacity:1"
   inkscape:connector-curvature="0"
   id="path5150"
   d="m 1068.4,650.84348 192.2,170.9 c 3.8,3.4 9.3,4.4 14.1,2.6 l 47.9,-18.1 c 9.7,-3.7 18.1,-10.3 23.9,-18.8 v 0 c 3.4,-5.1 1.8,-12 -3.5,-15 l -187.2,-107.1 c -9.9,-5.7 -20.6,-9.8 -31.7,-12.3 l -50.9,-11.5 c -5.5,-1.3 -9,5.5 -4.8,9.3 z" /><path
   style="fill:#2c8fc4;fill-opacity:1"
   inkscape:connector-curvature="0"
   id="path5152"
   d="m 1271,680.94348 60.3,38.2 c 5,3.2 11.6,-0.4 11.6,-6.4 v 0 c 0,-12.8 3.7,-25.4 10.5,-36.2 l 16.4,-25.7 c 4.4,-6.9 -2.8,-15.3 -10.3,-12 l -39.4,17.1 c -15,6.5 -30.7,11.2 -46.9,13.8 v 0 c -5.5,1 -6.9,8.3 -2.2,11.2 z" /></svg>