<?xml version="1.0" standalone="no"?>
<!DOCTYPE svg PUBLIC "-//W3C//DTD SVG 20010904//EN"
 "http://www.w3.org/TR/2001/REC-SVG-20010904/DTD/svg10.dtd">
<svg version="1.0" xmlns="http://www.w3.org/2000/svg"
 width="512.000000pt" height="512.000000pt" viewBox="0 0 512.000000 512.000000"
 preserveAspectRatio="xMidYMid meet">
<metadata>
Created by potrace 1.11, written by Peter Selinger 2001-2013
</metadata>
<g transform="translate(0.000000,512.000000) scale(0.100000,-0.100000)"
fill="#000000" stroke="none">
<path d="M4115 4237 c-218 -132 -357 -273 -539 -547 -92 -139 -99 -150 -187
-305 -85 -149 -96 -169 -218 -410 -119 -234 -130 -259 -232 -512 -75 -186
-140 -298 -221 -383 -229 -239 -578 -369 -1088 -405 -36 -3 -74 -7 -85 -9 -11
-3 -54 -12 -95 -21 -255 -54 -496 -137 -715 -247 -105 -53 -308 -183 -340
-218 -18 -20 -17 -21 23 -59 85 -81 338 -151 787 -216 226 -33 307 -38 630
-39 348 -1 485 9 659 45 225 47 402 138 547 281 89 88 148 179 184 283 84 240
291 676 440 923 6 9 27 47 48 85 22 37 45 67 52 67 45 0 90 -36 133 -105 31
-51 86 -203 96 -265 3 -19 10 -50 15 -68 5 -18 10 -35 10 -37 -1 -10 13 -141
17 -165 24 -154 24 -828 0 -1012 l-4 -26 93 0 94 0 -4 36 c-21 198 -21 721 0
892 1 14 6 56 9 93 4 37 9 76 11 85 1 9 6 37 10 62 28 183 82 366 127 432 10
14 18 29 18 32 0 4 17 25 38 48 52 57 54 59 87 103 82 108 161 268 180 366 6
32 16 95 29 186 34 245 -16 459 -157 668 -83 123 -361 376 -412 374 -11 0 -29
-6 -40 -12z"/>
</g>
</svg>
